Eczar-SemiBold.ufo
<glyph name="asterisk" format="1">
  <advance width="402"/>
  <unicode hex="002A"/>
  <outline>
    <contour>
      <point x="51" y="679" type="line"/>
      <point x="137" y="591" type="line"/>
      <point x="170" y="628" type="line"/>
      <point x="112" y="768" type="line"/>
    </contour>
    <contour>
      <point x="4" y="580" type="line"/>
      <point x="67" y="491" type="line"/>
      <point x="180" y="546" type="line"/>
      <point x="154" y="589" type="line"/>
    </contour>
    <contour>
      <point x="186" y="556" type="line"/>
      <point x="149" y="409" type="line"/>
      <point x="252" y="443" type="line"/>
      <point x="235" y="566" type="line"/>
    </contour>
    <contour>
      <point x="224" y="577" type="line"/>
      <point x="352" y="498" type="line"/>
      <point x="351" y="605" type="line"/>
      <point x="229" y="626" type="line"/>
    </contour>
    <contour>
      <point x="167" y="641" type="line"/>
      <point x="213" y="620" type="line"/>
      <point x="329" y="717" type="line"/>
      <point x="226" y="750" type="line"/>
    </contour>
  </outline>
</glyph>
<glyph name="comma" format="1">
  <advance width="287"/>
  <unicode hex="002C"/>
  <outline>
    <contour>
      <point x="46" y="-97" type="curve"/>
      <point x="84" y="-143" type="line"/>
      <point x="167" y="-104"/>
      <point x="230" y="-23"/>
      <point x="230" y="48" type="curve"/>
      <point x="230" y="96"/>
      <point x="200" y="139"/>
      <point x="141" y="161" type="curve"/>
      <point x="100" y="139"/>
      <point x="69" y="106"/>
      <point x="62" y="57" type="curve"/>
      <point x="115" y="14" type="line"/>
      <point x="112" y="-21"/>
      <point x="87" y="-62"/>
    </contour>
  </outline>
</glyph>
<glyph name="seven" format="1">
  <advance width="493"/>
  <unicode hex="0037"/>
  <outline>
    <contour>
      <point x="83" y="28" type="curve"/>
      <point x="223" y="-19" type="line"/>
      <point x="298" y="187"/>
      <point x="385" y="377"/>
      <point x="494" y="562" type="curve"/>
      <point x="451" y="650" type="line"/>
      <point x="30" y="650" type="line"/>
      <point x="76" y="546" type="line"/>
      <point x="356" y="557" type="line"/>
      <point x="363" y="549" type="line"/>
      <point x="252" y="387"/>
      <point x="163" y="213"/>
    </contour>
    <contour>
      <point x="39" y="451" type="curve"/>
      <point x="133" y="450" type="line"/>
      <point x="164" y="643" type="line"/>
      <point x="24" y="650" type="line"/>
      <point x="20" y="601"/>
      <point x="27" y="500"/>
    </contour>
  </outline>
</glyph>
<glyph name="greater" format="1">
  <advance width="576"/>
  <unicode hex="003E"/>
  <outline>
    <contour>
      <point x="70" y="75" type="line"/>
      <point x="114" y="-6" type="line"/>
      <point x="503" y="202" type="line"/>
      <point x="508" y="272" type="line"/>
      <point x="114" y="500" type="line"/>
      <point x="71" y="424" type="line"/>
      <point x="379" y="244" type="line"/>
      <point x="378" y="238" type="line"/>
    </contour>
  </outline>
</glyph>
<glyph name="C" format="1">
  <advance width="585"/>
  <unicode hex="0043"/>
  <outline>
    <contour>
      <point x="368" y="-16" type="curve"/>
      <point x="573" y="72" type="line"/>
      <point x="549" y="143" type="line"/>
      <point x="384" y="89" type="line"/>
      <point x="242" y="84"/>
      <point x="169" y="200"/>
      <point x="169" y="345" type="curve"/>
      <point x="169" y="435"/>
      <point x="197" y="537"/>
      <point x="267" y="590" type="curve"/>
      <point x="374" y="590"/>
      <point x="454" y="552"/>
      <point x="526" y="490" type="curve"/>
      <point x="556" y="615" type="line"/>
      <point x="516" y="643"/>
      <point x="450" y="678"/>
      <point x="350" y="678" type="curve"/>
      <point x="123" y="678"/>
      <point x="14" y="498"/>
      <point x="14" y="321" type="curve"/>
      <point x="14" y="155"/>
      <point x="108" y="-24"/>
    </contour>
    <contour>
      <point x="412" y="593" type="line"/>
      <point x="442" y="435" type="line"/>
      <point x="534" y="435" type="line"/>
      <point x="551" y="491"/>
      <point x="559" y="575"/>
      <point x="556" y="615" type="curve"/>
    </contour>
    <contour>
      <point x="331" y="0" type="move" name="bottom"/>
    </contour>
    <contour>
      <point x="331" y="650" type="move" name="top"/>
    </contour>
  </outline>
</glyph>
<glyph name="F" format="1">
  <advance width="606"/>
  <unicode hex="0046"/>
  <outline>
    <contour>
      <point x="107" y="658" type="line"/>
      <point x="107" y="0" type="line"/>
      <point x="259" y="0" type="line"/>
      <point x="259" y="658" type="line"/>
    </contour>
    <contour>
      <point x="26" y="32" type="curve"/>
      <point x="32" y="0" type="line"/>
      <point x="126" y="0" type="line"/>
      <point x="125" y="79" type="line"/>
      <point x="90" y="65"/>
      <point x="55" y="50"/>
    </contour>
    <contour>
      <point x="241" y="71" type="line"/>
      <point x="238" y="0" type="line"/>
      <point x="378" y="0" type="line"/>
      <point x="379" y="51" type="line"/>
    </contour>
    <contour>
      <point x="242" y="268" type="line"/>
      <point x="482" y="257" type="line"/>
      <point x="482" y="362" type="line"/>
      <point x="242" y="345" type="line"/>
    </contour>
    <contour>
      <point x="33" y="607" type="line"/>
      <point x="146" y="593" type="line"/>
      <point x="146" y="658" type="line"/>
      <point x="34" y="658" type="line"/>
    </contour>
    <contour>
      <point x="233" y="582" type="line"/>
      <point x="529" y="561" type="line"/>
      <point x="555" y="658" type="line"/>
      <point x="158" y="658" type="line"/>
    </contour>
    <contour>
      <point x="428" y="631" type="line"/>
      <point x="456" y="464" type="line"/>
      <point x="540" y="464" type="line"/>
      <point x="553" y="529"/>
      <point x="558" y="619"/>
      <point x="556" y="658" type="curve"/>
    </contour>
    <contour>
      <point x="173" y="0" type="move" name="bottom"/>
    </contour>
    <contour>
      <point x="173" y="390" type="move" name="top"/>
    </contour>
  </outline>
</glyph>
<glyph name="bracketleft" format="1">
  <advance width="393"/>
  <unicode hex="005B"/>
  <outline>
    <contour>
      <point x="91" y="712" type="line"/>
      <point x="91" y="-122" type="line"/>
      <point x="357" y="-122" type="line"/>
      <point x="363" y="-62" type="line"/>
      <point x="233" y="-32" type="line"/>
      <point x="233" y="622" type="line"/>
      <point x="363" y="652" type="line"/>
      <point x="357" y="712" type="line"/>
    </contour>
  </outline>
</glyph>
<glyph name="onesuperior" format="1">
  <advance width="259"/>
  <unicode hex="00B9"/>
  <outline>
    <contour>
      <point x="86" y="712" type="line"/>
      <point x="86" y="421" type="line"/>
      <point x="178" y="421" type="line"/>
      <point x="178" y="721" type="line"/>
    </contour>
    <contour>
      <point x="22" y="436" type="curve"/>
      <point x="25" y="421" type="line"/>
      <point x="96" y="421" type="line"/>
      <point x="97" y="468" type="line"/>
      <point x="72" y="462"/>
      <point x="40" y="448"/>
    </contour>
    <contour>
      <point x="169" y="464" type="line"/>
      <point x="167" y="421" type="line"/>
      <point x="235" y="421" type="line"/>
      <point x="236" y="448" type="line"/>
    </contour>
    <contour>
      <point x="8" y="672" type="line"/>
      <point x="26" y="637" type="line"/>
      <point x="138" y="682" type="line"/>
      <point x="148" y="727" type="line"/>
      <point x="138" y="747" type="line"/>
    </contour>
    <contour>
      <point x="138" y="747" type="line"/>
      <point x="130" y="710" type="line"/>
      <point x="179" y="721" type="line"/>
    </contour>
  </outline>
</glyph>
<glyph name="Thorn" format="1">
  <advance width="612"/>
  <unicode hex="00DE"/>
  <outline>
    <contour>
      <point x="225" y="240" type="curve"/>
      <point x="222" y="147" type="line"/>
      <point x="352" y="148" type="line" smooth="yes"/>
      <point x="515" y="148"/>
      <point x="597" y="237"/>
      <point x="597" y="332" type="curve"/>
      <point x="597" y="424"/>
      <point x="519" y="522"/>
      <point x="356" y="522" type="curve"/>
      <point x="183" y="522" type="line"/>
      <point x="245" y="422" type="line"/>
      <point x="380" y="443" type="line"/>
      <point x="424" y="415"/>
      <point x="445" y="374"/>
      <point x="445" y="332" type="curve"/>
      <point x="445" y="275"/>
      <point x="408" y="225"/>
      <point x="313" y="225" type="curve"/>
      <point x="278" y="225"/>
      <point x="254" y="232"/>
    </contour>
    <contour>
      <point x="26" y="34" type="curve"/>
      <point x="32" y="0" type="line"/>
      <point x="126" y="0" type="line"/>
      <point x="125" y="81" type="line"/>
      <point x="110" y="73"/>
      <point x="53" y="52"/>
    </contour>
    <contour>
      <point x="220" y="71" type="line"/>
      <point x="217" y="0" type="line"/>
      <point x="357" y="0" type="line"/>
      <point x="358" y="51" type="line"/>
    </contour>
    <contour>
      <point x="114" y="650" type="line"/>
      <point x="114" y="0" type="line"/>
      <point x="266" y="0" type="line"/>
      <point x="266" y="650" type="line"/>
    </contour>
    <contour>
      <point x="34" y="599" type="line"/>
      <point x="172" y="579" type="line"/>
      <point x="175" y="650" type="line"/>
      <point x="35" y="650" type="line"/>
    </contour>
    <contour>
      <point x="251" y="650" type="line"/>
      <point x="252" y="569" type="line"/>
      <point x="268" y="577"/>
      <point x="324" y="598"/>
      <point x="351" y="616" type="curve"/>
      <point x="345" y="650" type="line"/>
    </contour>
  </outline>
</glyph>
<glyph name="dcroat" format="1">
  <advance width="586"/>
  <unicode hex="0111"/>
  <outline>
    <contour>
      <point x="219" y="570" type="line"/>
      <point x="225" y="537" type="line"/>
      <point x="538" y="537" type="line"/>
      <point x="581" y="570" type="line"/>
      <point x="575" y="603" type="line"/>
      <point x="262" y="603" type="line"/>
    </contour>
    <component base="d"/>
  </outline>
</glyph>
<glyph name="gravecomb" format="1">
  <advance width="0"/>
  <unicode hex="0300"/>
  <outline>
    <contour>
      <point x="20" y="533" type="curve"/>
      <point x="95" y="593" type="line"/>
      <point x="-55" y="771" type="line"/>
      <point x="-151" y="688" type="line"/>
      <point x="-91" y="640"/>
      <point x="-36" y="587"/>
    </contour>
    <contour>
      <point x="0" y="471" type="move" name="_top"/>
    </contour>
  </outline>
</glyph>
<glyph name="macronbelowcomb" format="1">
  <advance width="0"/>
  <unicode hex="0331"/>
  <outline>
    <contour>
      <point x="-187" y="-167" type="curve"/>
      <point x="-181" y="-231" type="line"/>
      <point x="139" y="-231" type="line"/>
      <point x="186" y="-189" type="line"/>
      <point x="181" y="-142" type="line"/>
      <point x="-74" y="-142" type="line"/>
      <point x="-105" y="-142"/>
      <point x="-148" y="-148"/>
    </contour>
    <contour>
      <point x="0" y="0" type="move" name="_bottom"/>
    </contour>
  </outline>
</glyph>
<glyph name="tonos" format="1">
  <advance width="315"/>
  <unicode hex="0384"/>
  <outline>
    <contour>
      <point x="94" y="552" type="line"/>
      <point x="146" y="530" type="line"/>
      <point x="256" y="723" type="line"/>
      <point x="254" y="751" type="line"/>
      <point x="232" y="770"/>
      <point x="188" y="788"/>
      <point x="150" y="784" type="curve"/>
    </contour>
    <contour>
      <point x="150" y="471" type="move" name="_top"/>
    </contour>
  </outline>
</glyph>
<glyph name="Alpha" format="1">
  <advance width="719"/>
  <unicode hex="0391"/>
  <outline>
    <component base="A"/>
    <contour>
      <point x="335" y="0" type="move" name="bottom"/>
    </contour>
    <contour>
      <point x="140" y="343" type="move" name="left"/>
    </contour>
    <contour>
      <point x="347" y="650" type="move" name="top"/>
    </contour>
  </outline>
</glyph>
<glyph name="Gamma" format="1">
  <advance width="568"/>
  <unicode hex="0393"/>
  <outline>
    <contour>
      <point x="111" y="658" type="line"/>
      <point x="111" y="0" type="line"/>
      <point x="263" y="0" type="line"/>
      <point x="263" y="658" type="line"/>
    </contour>
    <contour>
      <point x="26" y="32" type="curve"/>
      <point x="32" y="0" type="line"/>
      <point x="126" y="0" type="line"/>
      <point x="125" y="79" type="line"/>
      <point x="90" y="65"/>
      <point x="55" y="50"/>
    </contour>
    <contour>
      <point x="245" y="71" type="line"/>
      <point x="242" y="0" type="line"/>
      <point x="382" y="0" type="line"/>
      <point x="383" y="51" type="line"/>
    </contour>
    <contour>
      <point x="38" y="607" type="line"/>
      <point x="151" y="593" type="line"/>
      <point x="151" y="658" type="line"/>
      <point x="39" y="658" type="line"/>
    </contour>
    <contour>
      <point x="230" y="582" type="line"/>
      <point x="540" y="560" type="line"/>
      <point x="555" y="658" type="line"/>
      <point x="155" y="658" type="line"/>
    </contour>
    <contour>
      <point x="429" y="631" type="line"/>
      <point x="455" y="464" type="line"/>
      <point x="539" y="464" type="line"/>
      <point x="553" y="531"/>
      <point x="557" y="618"/>
      <point x="555" y="658" type="curve"/>
    </contour>
  </outline>
</glyph>
<glyph name="Delta" format="1">
  <advance width="662"/>
  <unicode hex="0394"/>
  <outline>
    <contour>
      <point x="24" y="76" type="line"/>
      <point x="53" y="0" type="line"/>
      <point x="598" y="0" type="line"/>
      <point x="632" y="86" type="line"/>
      <point x="378" y="682" type="line"/>
      <point x="248" y="646" type="line"/>
      <point x="485" y="56" type="line"/>
      <point x="543" y="105" type="line"/>
      <point x="91" y="99" type="line"/>
      <point x="133" y="73" type="line"/>
      <point x="354" y="621" type="line"/>
      <point x="271" y="642" type="line"/>
    </contour>
  </outline>
</glyph>
<glyph name="Theta" format="1">
  <advance width="675"/>
  <unicode hex="0398"/>
  <outline>
    <contour>
      <point x="221" y="278" type="line"/>
      <point x="448" y="268" type="line"/>
      <point x="448" y="393" type="line"/>
      <point x="221" y="374" type="line"/>
    </contour>
    <component base="O"/>
  </outline>
</glyph>
<glyph name="Upsilon" format="1">
  <advance width="667"/>
  <unicode hex="03A5"/>
  <outline>
    <contour>
      <point x="251" y="164" type="curve"/>
      <point x="403" y="182" type="line"/>
      <point x="403" y="370"/>
      <point x="494" y="566"/>
      <point x="580" y="584" type="curve"/>
      <point x="569" y="582" type="line"/>
      <point x="659" y="582" type="line"/>
      <point x="672" y="625" type="line"/>
      <point x="645" y="647"/>
      <point x="599" y="665"/>
      <point x="560" y="665" type="curve"/>
      <point x="460" y="665"/>
      <point x="368" y="535"/>
      <point x="336" y="287" type="curve"/>
      <point x="349" y="293" type="line"/>
      <point x="337" y="456" type="line"/>
      <point x="288" y="600"/>
      <point x="226" y="665"/>
      <point x="139" y="665" type="curve"/>
      <point x="92" y="665"/>
      <point x="40" y="645"/>
      <point x="-2" y="615" type="curve"/>
      <point x="11" y="573" type="line"/>
      <point x="103" y="580" type="line"/>
      <point x="82" y="582" type="line"/>
      <point x="168" y="554"/>
      <point x="251" y="343"/>
    </contour>
    <contour>
      <point x="164" y="32" type="curve"/>
      <point x="170" y="0" type="line"/>
      <point x="264" y="0" type="line"/>
      <point x="263" y="79" type="line"/>
      <point x="228" y="65"/>
      <point x="193" y="50"/>
    </contour>
    <contour>
      <point x="356" y="71" type="line"/>
      <point x="353" y="0" type="line"/>
      <point x="493" y="0" type="line"/>
      <point x="494" y="51" type="line"/>
    </contour>
    <contour>
      <point x="251" y="294" type="line"/>
      <point x="251" y="0" type="line"/>
      <point x="403" y="0" type="line"/>
      <point x="403" y="294" type="line"/>
    </contour>
    <contour>
      <point x="331" y="350" type="line"/>
      <point x="329" y="280" type="line"/>
      <point x="365" y="280" type="line"/>
      <point x="365" y="350" type="line"/>
    </contour>
    <contour>
      <point x="-80" y="343" type="move" name="left"/>
    </contour>
    <contour>
      <point x="341" y="650" type="move" name="top"/>
    </contour>
  </outline>
</glyph>
<glyph name="Omega" format="1">
  <advance width="801"/>
  <unicode hex="03A9"/>
  <outline>
    <contour>
      <point x="37" y="103" type="line"/>
      <point x="28" y="0" type="line"/>
      <point x="347" y="0" type="line"/>
      <point x="369" y="68" type="line"/>
      <point x="279" y="158"/>
      <point x="240" y="258"/>
      <point x="240" y="380" type="curve"/>
      <point x="240" y="468"/>
      <point x="267" y="538"/>
      <point x="309" y="576" type="curve"/>
      <point x="333" y="585"/>
      <point x="357" y="590"/>
      <point x="382" y="590" type="curve"/>
      <point x="488" y="590"/>
      <point x="560" y="495"/>
      <point x="560" y="356" type="curve"/>
      <point x="560" y="243"/>
      <point x="520" y="154"/>
      <point x="436" y="68" type="curve"/>
      <point x="458" y="0" type="line"/>
      <point x="777" y="0" type="line"/>
      <point x="768" y="103" type="line"/>
      <point x="510" y="82" type="line"/>
      <point x="524" y="68" type="line"/>
      <point x="641" y="137"/>
      <point x="722" y="258"/>
      <point x="722" y="379" type="curve"/>
      <point x="722" y="548"/>
      <point x="583" y="678"/>
      <point x="400" y="678" type="curve"/>
      <point x="214" y="678"/>
      <point x="78" y="547"/>
      <point x="78" y="370" type="curve"/>
      <point x="78" y="240"/>
      <point x="160" y="123"/>
      <point x="291" y="69" type="curve"/>
      <point x="301" y="82" type="line"/>
    </contour>
    <contour>
      <point x="27" y="0" type="curve"/>
      <point x="139" y="24" type="line"/>
      <point x="84" y="205" type="line"/>
      <point x="15" y="199" type="line"/>
      <point x="13" y="149"/>
      <point x="19" y="61"/>
    </contour>
    <contour>
      <point x="665" y="24" type="line"/>
      <point x="777" y="0" type="line"/>
      <point x="786" y="61"/>
      <point x="791" y="149"/>
      <point x="789" y="199" type="curve"/>
      <point x="720" y="205" type="line"/>
    </contour>
    <contour>
      <point x="402" y="0" type="move" name="bottom"/>
    </contour>
    <contour>
      <point x="31" y="343" type="move" name="left"/>
    </contour>
  </outline>
</glyph>
<glyph name="theta" format="1">
  <advance width="523"/>
  <unicode hex="03B8"/>
  <outline>
    <contour>
      <point x="255" y="-20" type="curve"/>
      <point x="402" y="-20"/>
      <point x="497" y="128"/>
      <point x="497" y="360" type="curve"/>
      <point x="497" y="597"/>
      <point x="413" y="735"/>
      <point x="269" y="735" type="curve"/>
      <point x="121" y="735"/>
      <point x="27" y="587"/>
      <point x="27" y="356" type="curve"/>
      <point x="27" y="119"/>
      <point x="111" y="-20"/>
    </contour>
    <contour>
      <point x="224" y="127" type="curve"/>
      <point x="191" y="127"/>
      <point x="159" y="134"/>
      <point x="140" y="146" type="curve"/>
      <point x="119" y="184"/>
      <point x="107" y="241"/>
      <point x="107" y="309" type="curve"/>
      <point x="107" y="498"/>
      <point x="168" y="588"/>
      <point x="300" y="588" type="curve"/>
      <point x="333" y="588"/>
      <point x="364" y="581"/>
      <point x="384" y="569" type="curve"/>
      <point x="405" y="531"/>
      <point x="417" y="474"/>
      <point x="417" y="406" type="curve"/>
      <point x="417" y="217"/>
      <point x="356" y="127"/>
    </contour>
    <contour>
      <point x="86" y="322" type="line"/>
      <point x="440" y="303" type="line"/>
      <point x="443" y="418" type="line"/>
      <point x="89" y="387" type="line"/>
    </contour>
  </outline>
</glyph>
<glyph name="lamda" format="1">
  <advance width="543"/>
  <unicode hex="03BB"/>
  <outline>
    <contour>
      <point x="458" y="-14" type="curve"/>
      <point x="500" y="-14"/>
      <point x="544" y="29"/>
      <point x="564" y="88" type="curve"/>
      <point x="546" y="127" type="line"/>
      <point x="399" y="112" type="line"/>
      <point x="444" y="79" type="line"/>
      <point x="336" y="488" type="line" smooth="yes"/>
      <point x="289" y="669"/>
      <point x="229" y="735"/>
      <point x="111" y="735" type="curve"/>
      <point x="82" y="735"/>
      <point x="43" y="728"/>
      <point x="15" y="719" type="curve"/>
      <point x="15" y="680"/>
      <point x="28" y="625"/>
      <point x="43" y="594" type="curve"/>
      <point x="70" y="576" type="line"/>
      <point x="188" y="619" type="line"/>
      <point x="138" y="656" type="line"/>
      <point x="159" y="625"/>
      <point x="169" y="603"/>
      <point x="185" y="555" type="curve"/>
      <point x="203" y="501"/>
      <point x="218" y="446"/>
      <point x="233" y="408" type="curve"/>
      <point x="357" y="102" type="line" smooth="yes"/>
      <point x="392" y="16"/>
      <point x="418" y="-14"/>
    </contour>
    <contour>
      <point x="113" y="-14" type="curve"/>
      <point x="144" y="10" type="line"/>
      <point x="274" y="406" type="line"/>
      <point x="226" y="486" type="line"/>
      <point x="9" y="51" type="line"/>
      <point x="27" y="19"/>
      <point x="75" y="-12"/>
    </contour>
  </outline>
</glyph>
<glyph name="rho" format="1">
  <advance width="511"/>
  <unicode hex="03C1"/>
  <outline>
    <contour>
      <point x="34" y="-204" type="line"/>
      <point x="63" y="-224" type="line"/>
      <point x="114" y="-222"/>
      <point x="170" y="-208"/>
      <point x="195" y="-192" type="curve"/>
      <point x="113" y="104" type="line"/>
      <point x="128" y="123" type="line"/>
      <point x="125" y="142"/>
      <point x="124" y="166"/>
      <point x="124" y="197" type="curve"/>
      <point x="124" y="293"/>
      <point x="189" y="350"/>
      <point x="299" y="350" type="curve"/>
      <point x="332" y="350"/>
      <point x="367" y="346"/>
      <point x="393" y="333" type="curve"/>
      <point x="404" y="318"/>
      <point x="409" y="293"/>
      <point x="409" y="268" type="curve"/>
      <point x="409" y="184"/>
      <point x="341" y="127"/>
      <point x="231" y="127" type="curve"/>
      <point x="189" y="127"/>
      <point x="147" y="137"/>
      <point x="116" y="154" type="curve"/>
      <point x="101" y="114" type="line"/>
      <point x="140" y="33"/>
      <point x="204" y="-20"/>
      <point x="271" y="-20" type="curve"/>
      <point x="387" y="-20"/>
      <point x="488" y="103"/>
      <point x="488" y="251" type="curve"/>
      <point x="488" y="397"/>
      <point x="398" y="497"/>
      <point x="266" y="497" type="curve"/>
      <point x="135" y="497"/>
      <point x="44" y="389"/>
      <point x="44" y="233" type="curve"/>
      <point x="44" y="155"/>
      <point x="43" y="103"/>
      <point x="40" y="3" type="curve"/>
    </contour>
    <contour>
      <point x="286" y="471" type="move" name="top"/>
    </contour>
  </outline>
</glyph>
<glyph name="finalsigma" format="1">
  <advance width="443"/>
  <unicode hex="03C2"/>
  <outline>
    <contour>
      <point x="218" y="-139" type="line"/>
      <point x="269" y="-182" type="line"/>
      <point x="362" y="-108"/>
      <point x="398" y="-56"/>
      <point x="398" y="4" type="curve"/>
      <point x="398" y="48"/>
      <point x="382" y="79"/>
      <point x="341" y="104" type="curve"/>
      <point x="319" y="118"/>
      <point x="292" y="130"/>
      <point x="211" y="158" type="curve"/>
      <point x="128" y="189"/>
      <point x="96" y="204"/>
      <point x="88" y="219" type="curve"/>
      <point x="101" y="305"/>
      <point x="170" y="354"/>
      <point x="276" y="354" type="curve"/>
      <point x="400" y="336" type="line"/>
      <point x="428" y="358" type="line"/>
      <point x="433" y="403"/>
      <point x="431" y="451"/>
      <point x="422" y="482" type="curve"/>
      <point x="393" y="492"/>
      <point x="359" y="497"/>
      <point x="312" y="497" type="curve"/>
      <point x="148" y="497"/>
      <point x="24" y="387"/>
      <point x="24" y="238" type="curve"/>
      <point x="24" y="190"/>
      <point x="30" y="155"/>
      <point x="44" y="127" type="curve"/>
      <point x="68" y="78"/>
      <point x="115" y="41"/>
      <point x="192" y="12" type="curve"/>
      <point x="256" y="-13"/>
      <point x="286" y="-26"/>
      <point x="331" y="-46" type="curve"/>
      <point x="324" y="-17" type="line"/>
    </contour>
  </outline>
</glyph>
<glyph name="sigma" format="1">
  <advance width="587"/>
  <unicode hex="03C3"/>
  <outline>
    <contour>
      <point x="240" y="-20" type="curve"/>
      <point x="367" y="-20"/>
      <point x="462" y="87"/>
      <point x="462" y="217" type="curve"/>
      <point x="462" y="279"/>
      <point x="443" y="332"/>
      <point x="412" y="376" type="curve"/>
      <point x="343" y="365" type="line"/>
      <point x="367" y="341"/>
      <point x="381" y="303"/>
      <point x="381" y="263" type="curve"/>
      <point x="381" y="179"/>
      <point x="316" y="127"/>
      <point x="213" y="127" type="curve"/>
      <point x="171" y="127"/>
      <point x="141" y="131"/>
      <point x="119" y="144" type="curve"/>
      <point x="107" y="161"/>
      <point x="103" y="183"/>
      <point x="103" y="206" type="curve"/>
      <point x="103" y="290"/>
      <point x="172" y="339"/>
      <point x="299" y="339" type="curve"/>
      <point x="418" y="339" type="line"/>
      <point x="558" y="322" type="line"/>
      <point x="577" y="356" type="line"/>
      <point x="578" y="393"/>
      <point x="565" y="458"/>
      <point x="551" y="489" type="curve"/>
      <point x="360" y="475" type="line"/>
      <point x="265" y="475" type="line" smooth="yes"/>
      <point x="123" y="475"/>
      <point x="24" y="371"/>
      <point x="24" y="224" type="curve"/>
      <point x="24" y="80"/>
      <point x="112" y="-20"/>
    </contour>
  </outline>
</glyph>
<glyph name="kaisymbol" format="1">
  <advance width="536"/>
  <unicode hex="03D7"/>
  <outline>
    <contour>
      <point x="154" y="-222" type="curve"/>
      <point x="251" y="-222"/>
      <point x="353" y="-171"/>
      <point x="427" y="-90" type="curve"/>
      <point x="487" y="-26"/>
      <point x="518" y="38"/>
      <point x="529" y="88" type="curve"/>
      <point x="512" y="125" type="line"/>
      <point x="371" y="110" type="line"/>
      <point x="420" y="76" type="line"/>
      <point x="365" y="180"/>
      <point x="347" y="223"/>
      <point x="327" y="288" type="curve"/>
      <point x="237" y="220" type="line"/>
      <point x="342" y="56" type="line" smooth="yes"/>
      <point x="373" y="9"/>
      <point x="396" y="-8"/>
      <point x="430" y="-9" type="curve"/>
      <point x="420" y="23" type="line"/>
      <point x="401" y="-44"/>
      <point x="264" y="-108"/>
      <point x="173" y="-104" type="curve"/>
      <point x="76" y="-76" type="line"/>
      <point x="42" y="-104" type="line"/>
      <point x="42" y="-134"/>
      <point x="53" y="-181"/>
      <point x="65" y="-204" type="curve"/>
      <point x="86" y="-216"/>
      <point x="119" y="-222"/>
    </contour>
    <contour>
      <point x="179" y="-10" type="curve"/>
      <point x="219" y="96"/>
      <point x="262" y="175"/>
      <point x="307" y="222" type="curve"/>
      <point x="357" y="274"/>
      <point x="418" y="318"/>
      <point x="497" y="358" type="curve"/>
      <point x="512" y="393" type="line"/>
      <point x="504" y="432"/>
      <point x="479" y="478"/>
      <point x="457" y="494" type="curve"/>
      <point x="381" y="463"/>
      <point x="315" y="411"/>
      <point x="259" y="337" type="curve"/>
      <point x="212" y="276"/>
      <point x="170" y="188"/>
      <point x="128" y="65" type="curve"/>
      <point x="135" y="54" type="line"/>
      <point x="197" y="467" type="line"/>
      <point x="165" y="491" type="line"/>
      <point x="109" y="491"/>
      <point x="61" y="480"/>
      <point x="32" y="461" type="curve"/>
      <point x="58" y="282" type="line"/>
      <point x="65" y="2" type="line"/>
      <point x="89" y="-10"/>
      <point x="143" y="-16"/>
    </contour>
  </outline>
</glyph>
<glyph name="dvCandrabindu" format="1">
  <advance width="0"/>
  <unicode hex="0901"/>
  <outline>
    <contour>
      <point x="-179" y="684" type="curve"/>
      <point x="-83" y="684"/>
      <point x="-10" y="752"/>
      <point x="10" y="854" type="curve"/>
      <point x="-96" y="907" type="line"/>
      <point x="-111" y="831"/>
      <point x="-161" y="795"/>
      <point x="-215" y="795" type="curve"/>
      <point x="-267" y="795"/>
      <point x="-323" y="828"/>
      <point x="-365" y="908" type="curve"/>
      <point x="-423" y="858" type="line"/>
      <point x="-368" y="742"/>
      <point x="-267" y="684"/>
    </contour>
    <contour>
      <point x="-209" y="842" type="curve"/>
      <point x="-182" y="860"/>
      <point x="-152" y="898"/>
      <point x="-140" y="930" type="curve"/>
      <point x="-158" y="953"/>
      <point x="-195" y="987"/>
      <point x="-227" y="999" type="curve"/>
      <point x="-254" y="983"/>
      <point x="-282" y="946"/>
      <point x="-299" y="911" type="curve"/>
      <point x="-280" y="885"/>
      <point x="-238" y="853"/>
    </contour>
    <contour>
      <point x="-181" y="660" type="move" name="_abvmCANDRABINDU"/>
    </contour>
  </outline>
</glyph>
<glyph name="dvAa" format="1">
  <advance width="1110"/>
  <unicode hex="0906"/>
  <outline>
    <component base="dvA"/>
    <component base="dvMatraAa" xOffset="820"/>
    <contour>
      <point x="818" y="650" type="move" name="abvmBINDU"/>
    </contour>
    <contour>
      <point x="810" y="650" type="move" name="abvmCANDRABINDU"/>
    </contour>
  </outline>
</glyph>
<glyph name="dvShortE" format="1">
  <advance width="588"/>
  <unicode hex="090E"/>
  <outline>
    <component base="dvE"/>
    <component base="dvMatraShortE" xOffset="575"/>
    <contour>
      <point x="560" y="640" type="move" name="abvmBINDU"/>
    </contour>
  </outline>
</glyph>
<glyph name="dvShortO" format="1">
  <advance width="1110"/>
  <unicode hex="0912"/>
  <outline>
    <component base="dvA"/>
    <component base="dvMatraShortO" xOffset="820"/>
    <contour>
      <point x="1085" y="640" type="move" name="abvmBINDU"/>
    </contour>
    <contour>
      <point x="954" y="465" type="move" name="abvmTOP"/>
    </contour>
  </outline>
</glyph>
<glyph name="dvAu" format="1">
  <advance width="1110"/>
  <unicode hex="0914"/>
  <outline>
    <component base="dvA"/>
    <component base="dvMatraAu" xOffset="820"/>
    <contour>
      <point x="1077" y="640" type="move" name="abvmBINDU"/>
    </contour>
  </outline>
</glyph>
<glyph name="dvMatraAa" format="1">
  <advance width="290"/>
  <unicode hex="093E"/>
  <outline>
    <contour>
      <point x="75" y="14" type="line"/>
      <point x="171" y="-40" type="line"/>
      <point x="210" y="-23" type="line"/>
      <point x="210" y="493" type="line"/>
      <point x="121" y="560" type="line"/>
      <point x="75" y="581" type="line"/>
    </contour>
    <contour>
      <point x="-48" y="605" type="line"/>
      <point x="-1" y="538" type="line"/>
      <point x="320" y="538" type="line"/>
      <point x="337" y="573" type="line"/>
      <point x="289" y="639" type="line"/>
      <point x="-31" y="639" type="line"/>
    </contour>
    <contour>
      <point x="19" y="650" type="move" name="abvmBINDU"/>
    </contour>
    <contour>
      <point x="12" y="650" type="move" name="abvmCANDRABINDU"/>
    </contour>
    <contour>
      <point x="139" y="472" type="move" name="abvmTOP"/>
    </contour>
  </outline>
</glyph>
<glyph name="dvMatraU" format="1">
  <advance width="0"/>
  <unicode hex="0941"/>
  <outline>
    <contour>
      <point x="-171" y="-308" type="curve"/>
      <point x="-77" y="-308"/>
      <point x="-7" y="-245"/>
      <point x="-7" y="-158" type="curve"/>
      <point x="-7" y="-66"/>
      <point x="-86" y="25"/>
      <point x="-181" y="25" type="curve"/>
      <point x="-234" y="25"/>
      <point x="-285" y="-6"/>
      <point x="-316" y="-58" type="curve"/>
      <point x="-232" y="-143" type="line"/>
      <point x="-142" y="-56" type="line"/>
      <point x="-119" y="-71"/>
      <point x="-108" y="-94"/>
      <point x="-108" y="-116" type="curve"/>
      <point x="-108" y="-159"/>
      <point x="-145" y="-201"/>
      <point x="-208" y="-201" type="curve"/>
      <point x="-288" y="-201"/>
      <point x="-359" y="-132"/>
      <point x="-456" y="-27" type="curve"/>
      <point x="-513" y="-80" type="line"/>
      <point x="-401" y="-216"/>
      <point x="-284" y="-308"/>
    </contour>
    <contour>
      <point x="-253" y="0" type="move" name="_blwmBOTTOM"/>
    </contour>
  </outline>
</glyph>
<glyph name="dvMatraVocalicRr" format="1">
  <advance width="0"/>
  <unicode hex="0944"/>
  <outline>
    <contour>
      <point x="-66" y="-391" type="curve"/>
      <point x="-7" y="-391"/>
      <point x="46" y="-362"/>
      <point x="83" y="-323" type="curve"/>
      <point x="22" y="-226" type="line"/>
      <point x="-12" y="-262"/>
      <point x="-79" y="-297"/>
      <point x="-118" y="-297" type="curve"/>
      <point x="-139" y="-297"/>
      <point x="-148" y="-287"/>
      <point x="-148" y="-276" type="curve"/>
      <point x="-148" y="-254"/>
      <point x="-108" y="-226"/>
      <point x="-17" y="-208" type="curve"/>
      <point x="2" y="-171" type="line"/>
      <point x="-52" y="-101" type="line"/>
      <point x="-180" y="-129"/>
      <point x="-245" y="-178"/>
      <point x="-245" y="-240" type="curve"/>
      <point x="-245" y="-313"/>
      <point x="-161" y="-391"/>
    </contour>
    <contour>
      <point x="-223" y="-216" type="curve"/>
      <point x="-192" y="-168" type="line"/>
      <point x="-218" y="-162"/>
      <point x="-231" y="-150"/>
      <point x="-231" y="-134" type="curve"/>
      <point x="-231" y="-97"/>
      <point x="-151" y="-72"/>
      <point x="-80" y="-57" type="curve"/>
      <point x="-80" y="48" type="line"/>
      <point x="-113" y="48" type="line"/>
      <point x="-243" y="22"/>
      <point x="-335" y="-22"/>
      <point x="-335" y="-98" type="curve"/>
      <point x="-335" y="-148"/>
      <point x="-298" y="-187"/>
    </contour>
    <contour>
      <point x="-233" y="0" type="move" name="_blwmBOTTOM"/>
    </contour>
  </outline>
</glyph>
<glyph name="dvMatraShortO" format="1">
  <advance width="290"/>
  <unicode hex="094A"/>
  <outline>
    <component base="dvMatraAa"/>
    <component base="dvMatraShortE" xOffset="291"/>
    <contour>
      <point x="279" y="640" type="move" name="abvmBINDU"/>
    </contour>
  </outline>
</glyph>
<glyph name="dvMatraUUE" format="1">
  <advance width="0"/>
  <unicode hex="0957"/>
  <outline>
    <component base="dvMatraUE" yOffset="-190"/>
    <component base="dvMatraUE"/>
    <contour>
      <point x="-262" y="0" type="move" name="_blwmBOTTOM"/>
    </contour>
  </outline>
</glyph>
<glyph name="dvMatraVocalicLl" format="1">
  <advance width="0"/>
  <unicode hex="0963"/>
  <outline>
    <contour>
      <point x="72" y="-347" type="curve"/>
      <point x="83" y="-310" type="line"/>
      <point x="75" y="-309"/>
      <point x="66" y="-303"/>
      <point x="66" y="-291" type="curve"/>
      <point x="66" y="-275"/>
      <point x="85" y="-256"/>
      <point x="102" y="-236" type="curve"/>
      <point x="126" y="-208"/>
      <point x="141" y="-179"/>
      <point x="141" y="-149" type="curve"/>
      <point x="141" y="-99"/>
      <point x="99" y="-46"/>
      <point x="37" y="-46" type="curve"/>
      <point x="-42" y="-46"/>
      <point x="-83" y="-131"/>
      <point x="-72" y="-213" type="curve"/>
      <point x="-6" y="-214" type="line"/>
      <point x="-9" y="-149"/>
      <point x="21" y="-107"/>
      <point x="49" y="-107" type="curve"/>
      <point x="67" y="-107"/>
      <point x="77" y="-123"/>
      <point x="77" y="-141" type="curve"/>
      <point x="77" y="-162"/>
      <point x="65" y="-175"/>
      <point x="40" y="-206" type="curve"/>
      <point x="15" y="-236"/>
      <point x="8" y="-253"/>
      <point x="8" y="-273" type="curve"/>
      <point x="8" y="-311"/>
      <point x="36" y="-334"/>
    </contour>
    <contour>
      <point x="-94" y="-306" type="curve"/>
      <point x="-58" y="-268" type="line"/>
      <point x="-110" y="-233"/>
      <point x="-138" y="-199"/>
      <point x="-138" y="-163" type="curve"/>
      <point x="-138" y="-134"/>
      <point x="-120" y="-119"/>
      <point x="-97" y="-119" type="curve"/>
      <point x="-80" y="-119"/>
      <point x="-63" y="-128"/>
      <point x="-49" y="-154" type="curve"/>
      <point x="-28" y="-108" type="line"/>
      <point x="-54" y="-63"/>
      <point x="-87" y="-46"/>
      <point x="-120" y="-46" type="curve"/>
      <point x="-174" y="-46"/>
      <point x="-215" y="-90"/>
      <point x="-215" y="-144" type="curve"/>
      <point x="-215" y="-213"/>
      <point x="-148" y="-271"/>
    </contour>
    <contour>
      <point x="140" y="-423" type="curve"/>
      <point x="169" y="-423"/>
      <point x="197" y="-407"/>
      <point x="216" y="-378" type="curve"/>
      <point x="179" y="-343" type="line"/>
      <point x="164" y="-362"/>
      <point x="142" y="-378"/>
      <point x="121" y="-378" type="curve"/>
      <point x="109" y="-378"/>
      <point x="102" y="-371"/>
      <point x="102" y="-362" type="curve"/>
      <point x="102" y="-350"/>
      <point x="120" y="-328"/>
      <point x="165" y="-318" type="curve"/>
      <point x="145" y="-270" type="line"/>
      <point x="88" y="-283"/>
      <point x="57" y="-313"/>
      <point x="57" y="-349" type="curve"/>
      <point x="57" y="-394"/>
      <point x="102" y="-423"/>
    </contour>
    <contour>
      <point x="-65" y="0" type="move" name="_blwmBOTTOM"/>
    </contour>
  </outline>
</glyph>
<glyph name="dvUE" format="1">
  <advance width="820"/>
  <unicode hex="0976"/>
  <outline>
    <component base="dvA"/>
    <component base="dvMatraUE" xOffset="773"/>
    <contour>
      <point x="668" y="650" type="move" name="abvmBINDU"/>
    </contour>
    <contour>
      <point x="650" y="650" type="move" name="abvmCANDRABINDU"/>
    </contour>
  </outline>
</glyph>
<glyph name="iotaadscript" format="1">
  <advance width="265"/>
  <unicode hex="1FBE"/>
  <outline>
    <contour>
      <point x="138" y="-231" type="curve"/>
      <point x="167" y="-231"/>
      <point x="200" y="-204"/>
      <point x="213" y="-173" type="curve"/>
      <point x="202" y="-143" type="line"/>
      <point x="110" y="-163" type="line"/>
      <point x="124" y="-187" type="line"/>
      <point x="179" y="-62" type="line"/>
      <point x="163" y="-42" type="line"/>
      <point x="119" y="-42"/>
      <point x="86" y="-47"/>
      <point x="64" y="-59" type="curve"/>
      <point x="70" y="-133" type="line" smooth="yes"/>
      <point x="77" y="-194"/>
      <point x="100" y="-231"/>
    </contour>
    <contour>
      <point x="114" y="0" type="move" name="_bottom"/>
    </contour>
  </outline>
</glyph>
<glyph name="lenis" format="1">
  <advance width="315"/>
  <unicode hex="1FBF"/>
  <outline>
    <contour>
      <point x="92" y="572" type="curve"/>
      <point x="122" y="530" type="line"/>
      <point x="196" y="564"/>
      <point x="242" y="631"/>
      <point x="242" y="692" type="curve"/>
      <point x="242" y="732"/>
      <point x="217" y="773"/>
      <point x="166" y="786" type="curve"/>
      <point x="128" y="769"/>
      <point x="105" y="737"/>
      <point x="98" y="696" type="curve"/>
      <point x="150" y="656" type="line"/>
      <point x="147" y="626"/>
      <point x="129" y="603"/>
    </contour>
    <contour>
      <point x="186" y="471" type="move" name="_top"/>
    </contour>
  </outline>
</glyph>
<glyph name="grTilde" format="1">
  <advance width="315"/>
  <unicode hex="1FC0"/>
  <outline>
    <contour>
      <point x="258" y="571" type="curve"/>
      <point x="314" y="571"/>
      <point x="344" y="612"/>
      <point x="358" y="702" type="curve"/>
      <point x="313" y="719" type="line"/>
      <point x="284" y="668" type="line"/>
      <point x="236" y="649"/>
      <point x="134" y="730"/>
      <point x="55" y="730" type="curve"/>
      <point x="1" y="730"/>
      <point x="-30" y="689"/>
      <point x="-42" y="600" type="curve"/>
      <point x="1" y="582" type="line"/>
      <point x="27" y="629" type="line"/>
      <point x="77" y="653"/>
      <point x="180" y="571"/>
    </contour>
    <contour>
      <point x="171" y="471" type="move" name="_top"/>
    </contour>
  </outline>
</glyph>
<glyph name="aspergrave" format="1">
  <advance width="315"/>
  <unicode hex="1FDD"/>
  <outline>
    <contour>
      <point x="171" y="723" type="line"/>
      <point x="282" y="530" type="line"/>
      <point x="334" y="552" type="line"/>
      <point x="277" y="784" type="line"/>
      <point x="239" y="788"/>
      <point x="196" y="770"/>
      <point x="173" y="751" type="curve"/>
    </contour>
    <contour>
      <point x="118" y="530" type="curve"/>
      <point x="148" y="572" type="line"/>
      <point x="111" y="603"/>
      <point x="93" y="626"/>
      <point x="90" y="656" type="curve"/>
      <point x="142" y="696" type="line"/>
      <point x="135" y="737"/>
      <point x="112" y="769"/>
      <point x="74" y="786" type="curve"/>
      <point x="23" y="773"/>
      <point x="-3" y="732"/>
      <point x="-3" y="692" type="curve"/>
      <point x="-3" y="631"/>
      <point x="44" y="564"/>
    </contour>
    <contour>
      <point x="208" y="471" type="move" name="_top"/>
    </contour>
  </outline>
</glyph>
<glyph name="asperacute" format="1">
  <advance width="315"/>
  <unicode hex="1FDE"/>
  <outline>
    <contour>
      <point x="176" y="552" type="line"/>
      <point x="228" y="530" type="line"/>
      <point x="338" y="723" type="line"/>
      <point x="336" y="751" type="line"/>
      <point x="314" y="770"/>
      <point x="270" y="788"/>
      <point x="232" y="784" type="curve"/>
    </contour>
    <contour>
      <point x="119" y="530" type="curve"/>
      <point x="149" y="572" type="line"/>
      <point x="112" y="603"/>
      <point x="94" y="626"/>
      <point x="92" y="656" type="curve"/>
      <point x="143" y="696" type="line"/>
      <point x="137" y="737"/>
      <point x="113" y="769"/>
      <point x="76" y="786" type="curve"/>
      <point x="24" y="773"/>
      <point x="-1" y="732"/>
      <point x="-1" y="692" type="curve"/>
      <point x="-1" y="631"/>
      <point x="45" y="564"/>
    </contour>
    <contour>
      <point x="200" y="471" type="move" name="_top"/>
    </contour>
  </outline>
</glyph>
<glyph name="aspertilde" format="1">
  <advance width="315"/>
  <unicode hex="1FDF"/>
  <outline>
    <component base="grTilde" xOffset="17" yOffset="220"/>
    <component base="lenis" xScale="-1" xOffset="332"/>
    <contour>
      <point x="206" y="471" type="move" name="_top"/>
    </contour>
  </outline>
</glyph>
<glyph name="dieresisgrave" format="1">
  <advance width="315"/>
  <unicode hex="1FED"/>
  <outline>
    <contour>
      <point x="77" y="730" type="line"/>
      <point x="162" y="531" type="line"/>
      <point x="219" y="547" type="line"/>
      <point x="189" y="784" type="line"/>
      <point x="150" y="789"/>
      <point x="105" y="775"/>
      <point x="80" y="758" type="curve"/>
    </contour>
    <contour>
      <point x="-2" y="550" type="curve"/>
      <point x="35" y="568"/>
      <point x="58" y="596"/>
      <point x="70" y="634" type="curve"/>
      <point x="60" y="673"/>
      <point x="25" y="703"/>
      <point x="-16" y="719" type="curve"/>
      <point x="-54" y="698"/>
      <point x="-84" y="666"/>
      <point x="-90" y="621" type="curve"/>
      <point x="-72" y="585"/>
      <point x="-44" y="562"/>
    </contour>
    <contour>
      <point x="333" y="550" type="curve"/>
      <point x="370" y="568"/>
      <point x="393" y="596"/>
      <point x="405" y="634" type="curve"/>
      <point x="395" y="673"/>
      <point x="360" y="703"/>
      <point x="320" y="719" type="curve"/>
      <point x="282" y="698"/>
      <point x="252" y="666"/>
      <point x="246" y="621" type="curve"/>
      <point x="264" y="585"/>
      <point x="292" y="562"/>
    </contour>
    <contour>
      <point x="184" y="471" type="move" name="_top"/>
    </contour>
  </outline>
</glyph>
<glyph name="grGrave" format="1">
  <advance width="315"/>
  <unicode hex="1FEF"/>
  <outline>
    <component base="tonos" xScale="-1" xOffset="303"/>
    <contour>
      <point x="196" y="471" type="move" name="_top"/>
    </contour>
  </outline>
</glyph>
<glyph name="daggerdbl" format="1">
  <advance width="560"/>
  <unicode hex="2021"/>
  <outline>
    <contour>
      <point x="198" y="649" type="line"/>
      <point x="224" y="-180" type="line"/>
      <point x="325" y="-180" type="line"/>
      <point x="357" y="685" type="line"/>
      <point x="236" y="689" type="line"/>
    </contour>
    <contour>
      <point x="42" y="163" type="line"/>
      <point x="48" y="130" type="line"/>
      <point x="470" y="130" type="line"/>
      <point x="513" y="181" type="line"/>
      <point x="507" y="214" type="line"/>
      <point x="85" y="214" type="line"/>
    </contour>
    <contour>
      <point x="47" y="417" type="line"/>
      <point x="53" y="384" type="line"/>
      <point x="475" y="384" type="line"/>
      <point x="518" y="436" type="line"/>
      <point x="512" y="469" type="line"/>
      <point x="90" y="469" type="line"/>
    </contour>
  </outline>
</glyph>
<glyph name="foursuperior" format="1">
  <advance width="316"/>
  <unicode hex="2074"/>
  <outline>
    <contour>
      <point x="0" y="535" type="line"/>
      <point x="18" y="492" type="line"/>
      <point x="278" y="492" type="line"/>
      <point x="295" y="513" type="line"/>
      <point x="295" y="546" type="line"/>
      <point x="48" y="544" type="line"/>
      <point x="69" y="523" type="line"/>
      <point x="193" y="700" type="line"/>
      <point x="208" y="691" type="line"/>
      <point x="202" y="739" type="line"/>
      <point x="164" y="751" type="line"/>
    </contour>
    <contour>
      <point x="90" y="436" type="curve"/>
      <point x="93" y="421" type="line"/>
      <point x="165" y="421" type="line"/>
      <point x="166" y="466" type="line"/>
      <point x="142" y="460"/>
      <point x="111" y="448"/>
    </contour>
    <contour>
      <point x="213" y="460" type="line"/>
      <point x="212" y="421" type="line"/>
      <point x="276" y="421" type="line"/>
      <point x="277" y="448" type="line"/>
    </contour>
    <contour>
      <point x="153" y="599" type="line"/>
      <point x="153" y="421" type="line"/>
      <point x="239" y="421" type="line"/>
      <point x="239" y="737" type="line"/>
      <point x="164" y="751" type="line"/>
      <point x="172" y="695" type="line"/>
    </contour>
  </outline>
</glyph>
<glyph name="Ohm" format="1">
  <advance width="684"/>
  <unicode hex="2126"/>
  <outline>
    <contour>
      <point x="387" y="75" type="curve"/>
      <point x="420" y="14" type="line"/>
      <point x="570" y="78"/>
      <point x="670" y="213"/>
      <point x="670" y="362" type="curve"/>
      <point x="670" y="534"/>
      <point x="531" y="670"/>
      <point x="346" y="670" type="curve"/>
      <point x="155" y="670"/>
      <point x="14" y="524"/>
      <point x="14" y="353" type="curve"/>
      <point x="14" y="200"/>
      <point x="121" y="83"/>
      <point x="285" y="18" type="curve"/>
      <point x="322" y="79" type="line"/>
      <point x="217" y="151"/>
      <point x="171" y="271"/>
      <point x="171" y="374" type="curve"/>
      <point x="171" y="495"/>
      <point x="233" y="592"/>
      <point x="346" y="592" type="curve"/>
      <point x="465" y="592"/>
      <point x="528" y="493"/>
      <point x="528" y="370" type="curve"/>
      <point x="528" y="271"/>
      <point x="485" y="154"/>
    </contour>
    <contour>
      <point x="42" y="32" type="curve"/>
      <point x="48" y="0" type="line"/>
      <point x="322" y="0" type="line"/>
      <point x="322" y="79" type="line"/>
      <point x="218" y="74"/>
      <point x="103" y="58"/>
    </contour>
    <contour>
      <point x="387" y="75" type="line"/>
      <point x="387" y="0" type="line"/>
      <point x="648" y="0" type="line"/>
      <point x="649" y="51" type="line"/>
    </contour>
  </outline>
</glyph>
<glyph name="asper.case" format="1">
  <advance width="315"/>
  <outline>
    <contour>
      <point x="152" y="411" type="curve"/>
      <point x="182" y="452" type="line"/>
      <point x="145" y="484"/>
      <point x="127" y="506"/>
      <point x="124" y="537" type="curve"/>
      <point x="176" y="576" type="line"/>
      <point x="169" y="618"/>
      <point x="146" y="650"/>
      <point x="108" y="666" type="curve"/>
      <point x="57" y="654"/>
      <point x="32" y="613"/>
      <point x="32" y="573" type="curve"/>
      <point x="32" y="512"/>
      <point x="78" y="445"/>
    </contour>
    <contour>
      <point x="155" y="343" type="move" name="_left"/>
    </contour>
  </outline>
</glyph>
<glyph name="asperacute.case" format="1">
  <advance width="315"/>
  <outline>
    <contour>
      <point x="106" y="432" type="line"/>
      <point x="158" y="411" type="line"/>
      <point x="269" y="604" type="line"/>
      <point x="267" y="632" type="line"/>
      <point x="244" y="650"/>
      <point x="201" y="668"/>
      <point x="163" y="665" type="curve"/>
    </contour>
    <contour>
      <point x="50" y="411" type="curve"/>
      <point x="80" y="452" type="line"/>
      <point x="43" y="484"/>
      <point x="25" y="506"/>
      <point x="22" y="537" type="curve"/>
      <point x="74" y="576" type="line"/>
      <point x="67" y="618"/>
      <point x="44" y="650"/>
      <point x="6" y="666" type="curve"/>
      <point x="-46" y="654"/>
      <point x="-71" y="613"/>
      <point x="-71" y="573" type="curve"/>
      <point x="-71" y="512"/>
      <point x="-25" y="445"/>
    </contour>
    <contour>
      <point x="230" y="343" type="move" name="_left"/>
    </contour>
  </outline>
</glyph>
<glyph name="caroncomb.calt" format="1">
  <advance width="0"/>
  <outline>
    <contour>
      <point x="-17" y="505" type="curve"/>
      <point x="30" y="465" type="line"/>
      <point x="129" y="549"/>
      <point x="184" y="671"/>
      <point x="113" y="759" type="curve"/>
      <point x="-1" y="707" type="line"/>
      <point x="1" y="666" type="line"/>
      <point x="52" y="647"/>
      <point x="34" y="579"/>
    </contour>
    <contour>
      <point x="0" y="597" type="move" name="_topright"/>
    </contour>
  </outline>
</glyph>
<glyph name="caroncomb.case" format="1">
  <advance width="0"/>
  <outline>
    <contour>
      <point x="-201" y="765" type="line"/>
      <point x="-58" y="638" type="line"/>
      <point x="49" y="640" type="line"/>
      <point x="193" y="778" type="line"/>
      <point x="135" y="836" type="line"/>
      <point x="0" y="720" type="line"/>
      <point x="-130" y="834" type="line"/>
    </contour>
    <contour>
      <point x="-1" y="580" type="move" name="_top"/>
    </contour>
  </outline>
</glyph>
<glyph name="dvAnusvara.alt" format="1">
  <advance width="0"/>
  <outline>
    <contour>
      <point x="50" y="724" type="curve"/>
      <point x="77" y="743"/>
      <point x="106" y="781"/>
      <point x="119" y="814" type="curve"/>
      <point x="102" y="836"/>
      <point x="64" y="871"/>
      <point x="32" y="883" type="curve"/>
      <point x="4" y="867"/>
      <point x="-25" y="830"/>
      <point x="-42" y="794" type="curve"/>
      <point x="-23" y="768"/>
      <point x="21" y="736"/>
    </contour>
    <contour>
      <point x="0" y="660" type="move" name="_abvmTOP"/>
    </contour>
  </outline>
</glyph>
<glyph name="dvDRYa" format="1">
  <advance width="1176"/>
  <outline>
    <component base="dvDRa" xOffset="-7"/>
    <component base="dvYa.post" xOffset="529"/>
    <contour>
      <point x="886" y="650" type="move" name="abvmBINDU"/>
    </contour>
    <contour>
      <point x="913" y="650" type="move" name="abvmCANDRABINDU"/>
    </contour>
    <contour>
      <point x="1253" y="650" type="move" name="abvmCANDRABINDU2"/>
    </contour>
    <contour>
      <point x="1023" y="472" type="move" name="abvmTOP"/>
    </contour>
    <contour>
      <point x="946" y="-33" type="move" name="blwmBOTTOM"/>
    </contour>
  </outline>
</glyph>
<glyph name="dvFive.ss05" format="1">
  <advance width="562"/>
  <outline>
    <contour>
      <point x="288" y="177" type="curve"/>
      <point x="362" y="177"/>
      <point x="427" y="233"/>
      <point x="446" y="315" type="curve"/>
      <point x="373" y="401" type="line"/>
      <point x="362" y="322"/>
      <point x="269" y="257"/>
      <point x="182" y="302" type="curve"/>
      <point x="161" y="367"/>
      <point x="189" y="491"/>
      <point x="233" y="606" type="curve"/>
      <point x="107" y="652" type="line"/>
      <point x="66" y="563"/>
      <point x="52" y="470"/>
      <point x="52" y="422" type="curve"/>
      <point x="52" y="266"/>
      <point x="193" y="177"/>
    </contour>
    <contour>
      <point x="105" y="121" type="line"/>
      <point x="99" y="-18" type="line"/>
      <point x="162" y="-36"/>
      <point x="257" y="-9"/>
      <point x="280" y="18" type="curve"/>
      <point x="265" y="75" type="line"/>
      <point x="147" y="142" type="line"/>
    </contour>
    <contour>
      <point x="211" y="15" type="line"/>
      <point x="439" y="-98" type="line"/>
      <point x="495" y="-57" type="line"/>
      <point x="495" y="-21" type="line"/>
      <point x="262" y="80" type="line"/>
    </contour>
    <contour>
      <point x="205" y="94" type="curve"/>
      <point x="300" y="36" type="line"/>
      <point x="429" y="147"/>
      <point x="493" y="350"/>
      <point x="484" y="578" type="curve"/>
      <point x="364" y="611" type="line"/>
      <point x="365" y="433"/>
      <point x="338" y="210"/>
    </contour>
  </outline>
</glyph>
<glyph name="dvJh" format="1">
  <advance width="590"/>
  <outline>
    <contour>
      <point x="686" y="203" type="curve"/>
      <point x="633" y="314" type="line"/>
      <point x="580" y="262"/>
      <point x="479" y="271"/>
      <point x="388" y="309" type="curve"/>
      <point x="376" y="265" type="line"/>
      <point x="475" y="187"/>
      <point x="585" y="139"/>
    </contour>
    <contour>
      <point x="487" y="605" type="line"/>
      <point x="535" y="538" type="line"/>
      <point x="662" y="538" type="line"/>
      <point x="679" y="573" type="line"/>
      <point x="631" y="639" type="line"/>
      <point x="504" y="639" type="line"/>
    </contour>
    <component base="dvI"/>
  </outline>
</glyph>
<glyph name="dvKSPRa" format="1">
  <advance width="1642"/>
  <outline>
    <component base="dvK"/>
    <component base="dvS" xOffset="603"/>
    <component base="dvPRa" xOffset="1023"/>
    <contour>
      <point x="1350" y="650" type="move" name="abvmBINDU"/>
    </contour>
    <contour>
      <point x="1362" y="650" type="move" name="abvmCANDRABINDU"/>
    </contour>
    <contour>
      <point x="1717" y="650" type="move" name="abvmCANDRABINDU2"/>
    </contour>
    <contour>
      <point x="1487" y="472" type="move" name="abvmTOP"/>
    </contour>
    <contour>
      <point x="1410" y="-28" type="move" name="blwmBOTTOM"/>
    </contour>
  </outline>
</glyph>
<glyph name="dvLThYa" format="1">
  <advance width="1554"/>
  <outline>
    <component base="dvL.alt"/>
    <component base="dvTh" xOffset="519"/>
    <component base="dvYa" xOffset="920"/>
    <contour>
      <point x="1261" y="650" type="move" name="abvmBINDU"/>
    </contour>
    <contour>
      <point x="1289" y="650" type="move" name="abvmCANDRABINDU"/>
    </contour>
    <contour>
      <point x="1629" y="650" type="move" name="abvmCANDRABINDU2"/>
    </contour>
    <contour>
      <point x="1399" y="472" type="move" name="abvmTOP"/>
    </contour>
    <contour>
      <point x="1321" y="3" type="move" name="blwmBOTTOM"/>
    </contour>
  </outline>
</glyph>
<glyph name="dvMatraCandraE.calt" format="1">
  <advance width="0"/>
  <outline>
    <contour>
      <point x="-182" y="694" type="curve"/>
      <point x="-86" y="694"/>
      <point x="-23" y="762"/>
      <point x="-4" y="864" type="curve"/>
      <point x="-109" y="917" type="line"/>
      <point x="-124" y="841"/>
      <point x="-164" y="805"/>
      <point x="-218" y="805" type="curve"/>
      <point x="-270" y="805"/>
      <point x="-316" y="838"/>
      <point x="-358" y="918" type="curve"/>
      <point x="-416" y="868" type="line"/>
      <point x="-361" y="752"/>
      <point x="-270" y="694"/>
    </contour>
    <contour>
      <point x="-90" y="660" type="move" name="_abvmCANDRABINDU"/>
    </contour>
  </outline>
</glyph>
<glyph name="dvMatraE_dvReph" format="1">
  <advance width="0"/>
  <outline>
    <contour>
      <point x="-174" y="579" type="curve"/>
      <point x="-116" y="579" type="line"/>
      <point x="-91" y="607" type="line"/>
      <point x="-129" y="656"/>
      <point x="-154" y="688"/>
      <point x="-154" y="736" type="curve"/>
      <point x="-154" y="797"/>
      <point x="-111" y="835"/>
      <point x="-57" y="835" type="curve"/>
      <point x="-30" y="835"/>
      <point x="-3" y="826"/>
      <point x="23" y="805" type="curve"/>
      <point x="44" y="865" type="line"/>
      <point x="10" y="911"/>
      <point x="-37" y="938"/>
      <point x="-90" y="938" type="curve"/>
      <point x="-167" y="938"/>
      <point x="-235" y="880"/>
      <point x="-235" y="784" type="curve"/>
      <point x="-235" y="724"/>
      <point x="-208" y="656"/>
    </contour>
    <component base="dvMatraE"/>
    <contour>
      <point x="-156" y="472" type="move" name="_abvmTOP"/>
    </contour>
  </outline>
</glyph>
<glyph name="dvMatraE_dvReph_dvAnusvara" format="1">
  <advance width="0"/>
  <outline>
    <contour>
      <point x="-47" y="668" type="curve"/>
      <point x="-23" y="684"/>
      <point x="4" y="718"/>
      <point x="15" y="746" type="curve"/>
      <point x="-1" y="766"/>
      <point x="-34" y="796"/>
      <point x="-62" y="807" type="curve"/>
      <point x="-87" y="793"/>
      <point x="-111" y="760"/>
      <point x="-126" y="729" type="curve"/>
      <point x="-110" y="706"/>
      <point x="-72" y="678"/>
    </contour>
    <component base="dvMatraE_dvReph"/>
    <contour>
      <point x="-156" y="472" type="move" name="_abvmTOP"/>
    </contour>
  </outline>
</glyph>
<glyph name="dvMatraIi_dvReph_dvAnusvara.1" format="1">
  <advance width="290"/>
  <outline>
    <contour>
      <point x="255" y="675" type="curve"/>
      <point x="279" y="691"/>
      <point x="305" y="725"/>
      <point x="316" y="753" type="curve"/>
      <point x="301" y="773"/>
      <point x="268" y="803"/>
      <point x="239" y="814" type="curve"/>
      <point x="214" y="800"/>
      <point x="190" y="767"/>
      <point x="175" y="736" type="curve"/>
      <point x="192" y="713"/>
      <point x="230" y="685"/>
    </contour>
    <component base="dvMatraIi_dvReph.1"/>
    <contour>
      <point x="262" y="604" type="move" name="abvmBINDU"/>
    </contour>
    <contour>
      <point x="192" y="472" type="move" name="abvmTOP"/>
    </contour>
  </outline>
</glyph>
<glyph name="dvMatraIi_dvReph_dvAnusvara.2" format="1">
  <advance width="290"/>
  <outline>
    <contour>
      <point x="253" y="675" type="curve"/>
      <point x="277" y="691"/>
      <point x="303" y="725"/>
      <point x="314" y="753" type="curve"/>
      <point x="299" y="773"/>
      <point x="266" y="803"/>
      <point x="237" y="814" type="curve"/>
      <point x="212" y="800"/>
      <point x="188" y="767"/>
      <point x="173" y="736" type="curve"/>
      <point x="190" y="713"/>
      <point x="228" y="685"/>
    </contour>
    <component base="dvMatraIi_dvReph.2"/>
    <contour>
      <point x="258" y="604" type="move" name="abvmBINDU"/>
    </contour>
    <contour>
      <point x="192" y="472" type="move" name="abvmTOP"/>
    </contour>
  </outline>
</glyph>
<glyph name="dvMatraO_dvReph_dvAnusvara" format="1">
  <advance width="290"/>
  <outline>
    <component base="dvMatraAa"/>
    <component base="dvMatraE_dvReph_dvAnusvara" xOffset="295"/>
    <contour>
      <point x="233" y="594" type="move" name="abvmBINDU"/>
    </contour>
  </outline>
</glyph>
<glyph name="dvMatraShortE_dvAnusvara" format="1">
  <advance width="0"/>
  <outline>
    <component base="dvMatraShortE"/>
    <component base="dvAnusvara" xOffset="-14" yOffset="-20"/>
    <contour>
      <point x="-152" y="472" type="move" name="_abvmTOP"/>
    </contour>
  </outline>
</glyph>
<glyph name="dvNBh" format="1">
  <advance width="734"/>
  <outline>
    <contour>
      <point x="420" y="212" type="curve"/>
      <point x="470" y="269" type="line"/>
      <point x="418" y="357"/>
      <point x="378" y="374"/>
      <point x="260" y="374" type="curve"/>
      <point x="69" y="374" type="line"/>
      <point x="69" y="328" type="line"/>
      <point x="162" y="253" type="line"/>
      <point x="301" y="253" type="line" smooth="yes"/>
      <point x="360" y="253"/>
      <point x="381" y="247"/>
    </contour>
    <contour>
      <point x="154" y="120" type="curve"/>
      <point x="214" y="148" type="line"/>
      <point x="214" y="330" type="line"/>
      <point x="147" y="374" type="line"/>
      <point x="48" y="374" type="line"/>
      <point x="9" y="321" type="line"/>
      <point x="27" y="249"/>
      <point x="90" y="161"/>
    </contour>
    <contour>
      <point x="-48" y="605" type="line"/>
      <point x="-1" y="538" type="line"/>
      <point x="283" y="538" type="line"/>
      <point x="300" y="573" type="line"/>
      <point x="253" y="639" type="line"/>
      <point x="-31" y="639" type="line"/>
    </contour>
    <component base="dvBh" xOffset="297"/>
  </outline>
</glyph>
<glyph name="dvNCa" format="1">
  <advance width="918"/>
  <outline>
    <contour>
      <point x="149" y="63" type="curve"/>
      <point x="209" y="91" type="line"/>
      <point x="209" y="263" type="line"/>
      <point x="142" y="307" type="line"/>
      <point x="43" y="307" type="line"/>
      <point x="4" y="254" type="line"/>
      <point x="26" y="187"/>
      <point x="98" y="99"/>
    </contour>
    <contour>
      <point x="102" y="307" type="line"/>
      <point x="133" y="192" type="line"/>
      <point x="425" y="192" type="line"/>
      <point x="445" y="220" type="line"/>
      <point x="400" y="307" type="line"/>
    </contour>
    <contour>
      <point x="-48" y="605" type="line"/>
      <point x="-1" y="538" type="line"/>
      <point x="354" y="538" type="line"/>
      <point x="371" y="573" type="line"/>
      <point x="324" y="639" type="line"/>
      <point x="-31" y="639" type="line"/>
    </contour>
    <component base="dvCa" xOffset="222"/>
    <contour>
      <point x="765" y="650" type="move" name="abvmBINDU"/>
    </contour>
    <contour>
      <point x="748" y="650" type="move" name="abvmCANDRABINDU"/>
    </contour>
    <contour>
      <point x="993" y="650" type="move" name="abvmCANDRABINDU2"/>
    </contour>
    <contour>
      <point x="763" y="472" type="move" name="abvmTOP"/>
    </contour>
    <contour>
      <point x="685" y="3" type="move" name="blwmBOTTOM"/>
    </contour>
  </outline>
</glyph>
<glyph name="dvNDha" format="1">
  <advance width="948"/>
  <outline>
    <contour>
      <point x="149" y="110" type="curve"/>
      <point x="209" y="138" type="line"/>
      <point x="209" y="320" type="line"/>
      <point x="142" y="364" type="line"/>
      <point x="43" y="364" type="line"/>
      <point x="4" y="311" type="line"/>
      <point x="22" y="239"/>
      <point x="85" y="151"/>
    </contour>
    <contour>
      <point x="97" y="364" type="line"/>
      <point x="128" y="246" type="line"/>
      <point x="430" y="246" type="line"/>
      <point x="450" y="278" type="line"/>
      <point x="405" y="364" type="line"/>
    </contour>
    <contour>
      <point x="-48" y="605" type="line"/>
      <point x="-1" y="538" type="line"/>
      <point x="288" y="538" type="line"/>
      <point x="305" y="573" type="line"/>
      <point x="258" y="639" type="line"/>
      <point x="-31" y="639" type="line"/>
    </contour>
    <component base="dvDha" xOffset="258"/>
    <contour>
      <point x="795" y="650" type="move" name="abvmBINDU"/>
    </contour>
    <contour>
      <point x="778" y="650" type="move" name="abvmCANDRABINDU"/>
    </contour>
    <contour>
      <point x="1023" y="650" type="move" name="abvmCANDRABINDU2"/>
    </contour>
    <contour>
      <point x="793" y="472" type="move" name="abvmTOP"/>
    </contour>
    <contour>
      <point x="715" y="3" type="move" name="blwmBOTTOM"/>
    </contour>
  </outline>
</glyph>
<glyph name="dvNJYa" format="1">
  <advance width="1426"/>
  <outline>
    <component base="dvN"/>
    <component base="dvJYa" xOffset="321"/>
    <contour>
      <point x="1134" y="650" type="move" name="abvmBINDU"/>
    </contour>
    <contour>
      <point x="1161" y="650" type="move" name="abvmCANDRABINDU"/>
    </contour>
    <contour>
      <point x="1501" y="650" type="move" name="abvmCANDRABINDU2"/>
    </contour>
    <contour>
      <point x="1271" y="472" type="move" name="abvmTOP"/>
    </contour>
    <contour>
      <point x="1194" y="3" type="move" name="blwmBOTTOM"/>
    </contour>
  </outline>
</glyph>
<glyph name="dvNTSa" format="1">
  <advance width="1360"/>
  <outline>
    <component base="dvN"/>
    <component base="dvT.alt1" xOffset="262"/>
    <component base="dvSa" xOffset="608"/>
    <contour>
      <point x="1033" y="650" type="move" name="abvmBINDU"/>
    </contour>
    <contour>
      <point x="1063" y="650" type="move" name="abvmCANDRABINDU"/>
    </contour>
    <contour>
      <point x="1435" y="650" type="move" name="abvmCANDRABINDU2"/>
    </contour>
    <contour>
      <point x="1205" y="472" type="move" name="abvmTOP"/>
    </contour>
    <contour>
      <point x="1128" y="3" type="move" name="blwmBOTTOM"/>
    </contour>
  </outline>
</glyph>
<glyph name="dvNThVa" format="1">
  <advance width="1320"/>
  <outline>
    <component base="dvN"/>
    <component base="dvTh" xOffset="304"/>
    <component base="dvVa" xOffset="705"/>
    <contour>
      <point x="1168" y="650" type="move" name="abvmBINDU"/>
    </contour>
    <contour>
      <point x="1150" y="650" type="move" name="abvmCANDRABINDU"/>
    </contour>
    <contour>
      <point x="1395" y="650" type="move" name="abvmCANDRABINDU2"/>
    </contour>
    <contour>
      <point x="1165" y="472" type="move" name="abvmTOP"/>
    </contour>
    <contour>
      <point x="1088" y="3" type="move" name="blwmBOTTOM"/>
    </contour>
  </outline>
</glyph>
<glyph name="dvNThYa" format="1">
  <advance width="1345"/>
  <outline>
    <component base="dvN"/>
    <component base="dvTh" xOffset="304"/>
    <component base="dvYa" xOffset="711"/>
    <contour>
      <point x="1053" y="650" type="move" name="abvmBINDU"/>
    </contour>
    <contour>
      <point x="1080" y="650" type="move" name="abvmCANDRABINDU"/>
    </contour>
    <contour>
      <point x="1420" y="650" type="move" name="abvmCANDRABINDU2"/>
    </contour>
    <contour>
      <point x="1190" y="472" type="move" name="abvmTOP"/>
    </contour>
    <contour>
      <point x="1113" y="3" type="move" name="blwmBOTTOM"/>
    </contour>
  </outline>
</glyph>
<glyph name="dvPTYa" format="1">
  <advance width="1287"/>
  <outline>
    <component base="dvP"/>
    <component base="dvTYa" xOffset="310"/>
    <contour>
      <point x="994" y="650" type="move" name="abvmBINDU"/>
    </contour>
    <contour>
      <point x="1022" y="650" type="move" name="abvmCANDRABINDU"/>
    </contour>
    <contour>
      <point x="1362" y="650" type="move" name="abvmCANDRABINDU2"/>
    </contour>
    <contour>
      <point x="1132" y="472" type="move" name="abvmTOP"/>
    </contour>
    <contour>
      <point x="1054" y="3" type="move" name="blwmBOTTOM"/>
    </contour>
  </outline>
</glyph>
<glyph name="dvSTYa" format="1">
  <advance width="1404"/>
  <outline>
    <component base="dvS"/>
    <component base="dvTYa" xOffset="427"/>
    <contour>
      <point x="1112" y="650" type="move" name="abvmBINDU"/>
    </contour>
    <contour>
      <point x="1139" y="650" type="move" name="abvmCANDRABINDU"/>
    </contour>
    <contour>
      <point x="1479" y="650" type="move" name="abvmCANDRABINDU2"/>
    </contour>
    <contour>
      <point x="1249" y="472" type="move" name="abvmTOP"/>
    </contour>
    <contour>
      <point x="1172" y="3" type="move" name="blwmBOTTOM"/>
    </contour>
  </outline>
</glyph>
<glyph name="dvSsMYa" format="1">
  <advance width="1322"/>
  <outline>
    <component base="dvSs"/>
    <component base="dvM" xOffset="330"/>
    <component base="dvYa" xOffset="688"/>
    <contour>
      <point x="1030" y="650" type="move" name="abvmBINDU"/>
    </contour>
    <contour>
      <point x="1057" y="650" type="move" name="abvmCANDRABINDU"/>
    </contour>
    <contour>
      <point x="1397" y="650" type="move" name="abvmCANDRABINDU2"/>
    </contour>
    <contour>
      <point x="1167" y="472" type="move" name="abvmTOP"/>
    </contour>
    <contour>
      <point x="1090" y="3" type="move" name="blwmBOTTOM"/>
    </contour>
  </outline>
</glyph>
<glyph name="dvTKYa" format="1">
  <advance width="1571"/>
  <outline>
    <component base="dvT"/>
    <component base="dvKYa" xOffset="325"/>
    <contour>
      <point x="1278" y="650" type="move" name="abvmBINDU"/>
    </contour>
    <contour>
      <point x="1306" y="650" type="move" name="abvmCANDRABINDU"/>
    </contour>
    <contour>
      <point x="1646" y="650" type="move" name="abvmCANDRABINDU2"/>
    </contour>
    <contour>
      <point x="1416" y="472" type="move" name="abvmTOP"/>
    </contour>
    <contour>
      <point x="1338" y="3" type="move" name="blwmBOTTOM"/>
    </contour>
  </outline>
</glyph>
<glyph name="dvTT.alt" format="1">
  <advance width="373"/>
  <outline>
    <contour>
      <point x="296" y="-43" type="curve"/>
      <point x="363" y="16" type="line"/>
      <point x="280" y="98"/>
      <point x="246" y="163"/>
      <point x="246" y="213" type="curve"/>
      <point x="246" y="270"/>
      <point x="286" y="308"/>
      <point x="369" y="308" type="curve"/>
      <point x="505" y="308" type="line"/>
      <point x="523" y="333" type="line"/>
      <point x="489" y="422" type="line"/>
      <point x="328" y="422" type="line" smooth="yes"/>
      <point x="182" y="422"/>
      <point x="116" y="344"/>
      <point x="116" y="253" type="curve"/>
      <point x="116" y="162"/>
      <point x="181" y="66"/>
    </contour>
    <contour>
      <point x="-6" y="388" type="line"/>
      <point x="42" y="321" type="line"/>
      <point x="413" y="321" type="line"/>
      <point x="430" y="356" type="line"/>
      <point x="382" y="422" type="line"/>
      <point x="11" y="422" type="line"/>
    </contour>
    <contour>
      <point x="-48" y="605" type="line"/>
      <point x="-1" y="538" type="line"/>
      <point x="446" y="538" type="line"/>
      <point x="463" y="573" type="line"/>
      <point x="415" y="639" type="line"/>
      <point x="-31" y="639" type="line"/>
    </contour>
  </outline>
</glyph>
<glyph name="dvTtTtYa" format="1">
  <advance width="1170"/>
  <outline>
    <component base="dvTtTta"/>
    <component base="dvYa.post" xOffset="521"/>
    <contour>
      <point x="873" y="650" type="move" name="abvmBINDU"/>
    </contour>
    <contour>
      <point x="901" y="650" type="move" name="abvmCANDRABINDU"/>
    </contour>
    <contour>
      <point x="1240" y="650" type="move" name="abvmCANDRABINDU2"/>
    </contour>
    <contour>
      <point x="1010" y="472" type="move" name="abvmTOP"/>
    </contour>
    <contour>
      <point x="938" y="-33" type="move" name="blwmBOTTOM"/>
    </contour>
  </outline>
</glyph>
<glyph name="dvZYa" format="1">
  <advance width="1106"/>
  <outline>
    <component base="dvJYa"/>
    <component base="dvNukta" xOffset="314" yOffset="51"/>
    <contour>
      <point x="813" y="650" type="move" name="abvmBINDU"/>
    </contour>
    <contour>
      <point x="841" y="650" type="move" name="abvmCANDRABINDU"/>
    </contour>
    <contour>
      <point x="1181" y="650" type="move" name="abvmCANDRABINDU2"/>
    </contour>
    <contour>
      <point x="951" y="472" type="move" name="abvmTOP"/>
    </contour>
    <contour>
      <point x="873" y="3" type="move" name="blwmBOTTOM"/>
    </contour>
  </outline>
</glyph>
<glyph name="f_h.liga" format="1">
  <advance width="987"/>
  <outline>
    <contour>
      <point x="82" y="535" type="curve"/>
      <point x="82" y="0" type="line"/>
      <point x="228" y="0" type="line"/>
      <point x="228" y="436" type="line"/>
      <point x="231" y="463" type="line"/>
      <point x="192" y="635" type="line"/>
      <point x="501" y="615" type="line"/>
      <point x="551" y="736" type="line"/>
      <point x="286" y="736" type="line" smooth="yes"/>
      <point x="179" y="736"/>
      <point x="82" y="662"/>
    </contour>
    <contour>
      <point x="15" y="34" type="curve"/>
      <point x="18" y="0" type="line"/>
      <point x="119" y="0" type="line"/>
      <point x="130" y="78" type="line"/>
      <point x="97" y="70"/>
      <point x="48" y="53"/>
    </contour>
    <contour>
      <point x="200" y="91" type="curve"/>
      <point x="183" y="0" type="line"/>
      <point x="311" y="0" type="line"/>
      <point x="315" y="49" type="line"/>
      <point x="282" y="69"/>
      <point x="239" y="83"/>
    </contour>
    <contour>
      <point x="9" y="423" type="curve"/>
      <point x="13" y="371" type="line"/>
      <point x="166" y="373" type="line"/>
      <point x="189" y="435" type="line"/>
      <point x="137" y="484" type="line"/>
      <point x="96" y="467"/>
      <point x="53" y="449"/>
    </contour>
    <contour>
      <point x="177" y="471" type="line"/>
      <point x="177" y="370" type="line"/>
      <point x="287" y="370" type="line"/>
      <point x="337" y="429" type="line"/>
      <point x="335" y="471" type="line"/>
    </contour>
    <component base="h" xOffset="365"/>
  </outline>
</glyph>
<glyph name="grAcute.case" format="1">
  <advance width="315"/>
  <outline>
    <contour>
      <point x="-1" y="432" type="line"/>
      <point x="52" y="411" type="line"/>
      <point x="162" y="604" type="line"/>
      <point x="160" y="632" type="line"/>
      <point x="138" y="650"/>
      <point x="94" y="668"/>
      <point x="56" y="665" type="curve"/>
    </contour>
    <contour>
      <point x="132" y="343" type="move" name="_left"/>
    </contour>
  </outline>
</glyph>
<glyph name="iotaadscript.case" format="1">
  <advance width="265"/>
  <outline>
    <contour>
      <point x="135" y="-224" type="curve"/>
      <point x="166" y="-224"/>
      <point x="201" y="-196"/>
      <point x="214" y="-164" type="curve"/>
      <point x="200" y="-135" type="line"/>
      <point x="109" y="-154" type="line"/>
      <point x="126" y="-177" type="line"/>
      <point x="182" y="-57" type="line"/>
      <point x="165" y="-34" type="line"/>
      <point x="117" y="-34"/>
      <point x="79" y="-39"/>
      <point x="55" y="-51" type="curve"/>
      <point x="61" y="-128" type="line" smooth="yes"/>
      <point x="67" y="-190"/>
      <point x="94" y="-224"/>
    </contour>
    <contour>
      <point x="113" y="0" type="move" name="_bottom"/>
    </contour>
  </outline>
</glyph>
<glyph name="lenis.case" format="1">
  <advance width="315"/>
  <outline>
    <contour>
      <point x="11" y="452" type="curve"/>
      <point x="41" y="411" type="line"/>
      <point x="115" y="445"/>
      <point x="161" y="512"/>
      <point x="161" y="573" type="curve"/>
      <point x="161" y="613"/>
      <point x="136" y="654"/>
      <point x="85" y="666" type="curve"/>
      <point x="47" y="650"/>
      <point x="24" y="618"/>
      <point x="17" y="576" type="curve"/>
      <point x="69" y="537" type="line"/>
      <point x="66" y="506"/>
      <point x="48" y="484"/>
    </contour>
    <contour>
      <point x="132" y="343" type="move" name="_left"/>
    </contour>
  </outline>
</glyph>
<glyph name="lenisacute.case" format="1">
  <advance width="315"/>
  <outline>
    <contour>
      <point x="45" y="432" type="line"/>
      <point x="97" y="411" type="line"/>
      <point x="208" y="604" type="line"/>
      <point x="206" y="632" type="line"/>
      <point x="183" y="650"/>
      <point x="140" y="668"/>
      <point x="102" y="665" type="curve"/>
    </contour>
    <contour>
      <point x="-118" y="452" type="curve"/>
      <point x="-88" y="411" type="line"/>
      <point x="-14" y="445"/>
      <point x="33" y="512"/>
      <point x="33" y="573" type="curve"/>
      <point x="33" y="613"/>
      <point x="8" y="654"/>
      <point x="-44" y="666" type="curve"/>
      <point x="-82" y="650"/>
      <point x="-105" y="618"/>
      <point x="-112" y="576" type="curve"/>
      <point x="-60" y="537" type="line"/>
      <point x="-63" y="506"/>
      <point x="-81" y="484"/>
    </contour>
    <contour>
      <point x="169" y="343" type="move" name="_left"/>
    </contour>
  </outline>
</glyph>
